<?xml version="1.0" standalone="no"?>
<!DOCTYPE svg PUBLIC "-//W3C//DTD SVG 20010904//EN"
 "http://www.w3.org/TR/2001/REC-SVG-20010904/DTD/svg10.dtd">
<svg version="1.0" xmlns="http://www.w3.org/2000/svg"
 width="394.000000pt" height="394.000000pt" viewBox="0 0 394.000000 394.000000"
 preserveAspectRatio="xMidYMid meet">
<metadata>
Created by potrace 1.14, written by Peter Selinger 2001-2017
</metadata>
<g transform="translate(0.000000,394.000000) scale(0.100000,-0.100000)"
fill="#000000" stroke="none">
<path d="M1699 3705 c-410 -66 -797 -278 -1060 -580 -422 -483 -554 -1145
-347 -1744 231 -671 849 -1145 1553 -1190 893 -58 1678 548 1857 1431 20 97
23 143 23 333 0 190 -3 235 -23 334 -73 362 -240 670 -504 927 -252 247 -541
401 -890 475 -133 28 -475 36 -609 14z m390 -195 c143 -13 239 -32 367 -75
175 -58 355 -157 500 -276 79 -64 221 -212 236 -244 8 -19 -28 -89 -242 -463
l-253 -442 -436 748 -437 747 46 6 c73 10 99 9 219 -1z m-118 -427 c134 -229
246 -420 247 -425 2 -4 -368 -8 -822 -8 -454 0 -826 3 -826 8 0 4 23 45 50 91
202 335 515 582 883 696 66 20 184 50 218 54 4 1 116 -186 250 -416z m1388
-433 c187 -368 216 -808 80 -1207 l-32 -93 -494 -2 c-409 -3 -492 -1 -488 10
4 12 705 1237 803 1406 l35 59 24 -39 c13 -21 46 -82 72 -134z m-1876 -138
c-376 -653 -819 -1412 -823 -1412 -11 0 -106 178 -140 260 -79 191 -114 374
-114 595 0 206 24 344 90 533 l26 72 494 0 494 0 -27 -48z m151 -1378 c318
-554 415 -729 404 -735 -17 -11 -89 -11 -213 1 -200 19 -363 65 -540 150 -167
81 -276 160 -427 311 -76 76 -138 142 -138 149 0 13 482 850 490 850 3 0 194
-327 424 -726z m1705 84 c-134 -265 -395 -517 -685 -662 -147 -74 -418 -154
-485 -144 -20 3 -131 187 -500 831 -9 16 34 17 841 17 l850 0 -21 -42z"/>
</g>
</svg>
