<?xml version="1.0" standalone="no"?>
<!DOCTYPE svg PUBLIC "-//W3C//DTD SVG 20010904//EN"
 "http://www.w3.org/TR/2001/REC-SVG-20010904/DTD/svg10.dtd">
<svg version="1.0" xmlns="http://www.w3.org/2000/svg"
 width="642.000000pt" height="642.000000pt" viewBox="0 0 642.000000 642.000000"
 preserveAspectRatio="xMidYMid meet">
<metadata>
Created by potrace 1.14, written by Peter Selinger 2001-2017
</metadata>
<g transform="translate(0.000000,642.000000) scale(0.100000,-0.100000)"
fill="#000000" stroke="none">
<path d="M2462 6105 c-79 -35 -93 -84 -89 -319 2 -98 2 -190 -1 -203 l-4 -23
-188 0 -188 0 -8 112 c-6 103 -9 115 -33 139 -37 36 -71 39 -404 31 l-289 -7
-24 -28 c-22 -26 -24 -37 -24 -133 l0 -104 -107 0 c-210 -1 -352 -54 -492
-186 -125 -117 -193 -236 -238 -410 -17 -64 -18 -172 -18 -1609 l0 -1540 23
-80 c38 -132 85 -208 192 -315 76 -76 111 -103 172 -133 163 -79 -69 -72 2488
-72 l2285 0 75 23 c131 42 211 90 298 182 89 94 139 187 180 335 16 55 17 193
16 1615 l0 1555 -22 78 c-12 42 -42 119 -68 170 -84 163 -252 308 -421 363
-29 10 -103 18 -190 21 l-141 5 -4 105 c-3 103 -3 105 -35 133 -43 38 -84 42
-398 38 -274 -4 -296 -7 -326 -51 -9 -14 -16 -60 -19 -127 l-5 -105 -192 -3
-192 -2 -3 229 c-3 252 -4 255 -72 305 -27 21 -37 21 -764 23 -627 2 -742 0
-770 -12z m1318 -420 l0 -145 -562 2 -563 3 -3 129 c-1 72 0 136 2 143 4 10
115 13 566 13 l560 0 0 -145z m-1580 -413 c0 -5 -35 -42 -77 -82 -43 -41 -186
-180 -318 -310 -132 -130 -294 -287 -359 -349 l-120 -113 -335 4 -336 5 1 234
c0 256 6 289 65 395 53 94 164 178 279 210 52 14 1200 20 1200 6z m1276 -106
c264 -47 481 -135 724 -294 96 -62 276 -214 325 -274 11 -13 41 -48 66 -78 64
-76 169 -234 215 -324 l39 -76 463 0 462 0 0 -740 0 -740 -468 0 -468 0 -39
-82 c-107 -220 -278 -431 -493 -606 -99 -82 -297 -194 -447 -254 -89 -36 -247
-78 -370 -100 -104 -17 -148 -20 -330 -15 -222 6 -285 15 -465 72 -163 52
-387 170 -533 282 -85 65 -247 223 -318 310 -69 83 -140 195 -198 311 l-41 82
-473 2 -472 3 0 740 0 740 468 0 468 0 43 81 c91 170 182 294 318 432 230 234
478 385 779 477 85 26 259 62 329 69 79 7 334 -4 416 -18z m1769 -208 c42 -36
75 -96 75 -133 0 -28 -23 -79 -49 -109 -72 -82 -225 -56 -272 47 -24 54 -24
81 2 134 28 58 86 93 156 93 44 0 58 -5 88 -32z m-4295 -3028 c0 -225 -4 -410
-8 -410 -20 0 -130 80 -169 122 -47 52 -73 99 -98 178 -14 44 -19 103 -23 288
l-4 232 151 0 151 0 0 -410z"/>
<path d="M3082 4859 c-329 -26 -640 -175 -892 -428 -210 -212 -350 -469 -412
-754 -30 -139 -32 -446 -5 -582 41 -200 130 -407 245 -569 74 -105 276 -307
372 -372 157 -108 375 -202 555 -239 125 -26 370 -31 496 -10 280 46 497 147
718 331 125 104 194 182 288 322 78 117 133 230 176 367 49 156 59 221 64 430
4 177 2 212 -16 302 -98 475 -394 856 -825 1063 -242 115 -491 161 -764 139z
m318 -309 c362 -58 707 -314 870 -645 165 -337 161 -734 -12 -1067 -200 -385
-612 -638 -1037 -638 -206 0 -363 38 -533 127 -279 147 -484 387 -582 683 -93
280 -72 610 55 878 77 160 228 343 373 452 122 91 308 172 472 204 83 17 304
20 394 6z"/>
<path d="M3043 4229 c-182 -38 -314 -108 -433 -228 -181 -183 -258 -387 -248
-661 5 -117 10 -147 37 -228 47 -140 110 -242 216 -348 173 -173 365 -253 613
-254 236 -1 441 85 607 255 96 97 140 162 184 272 55 133 66 195 65 358 0 133
-3 160 -27 238 -15 49 -39 112 -53 140 -117 233 -366 416 -630 462 -114 20
-218 18 -331 -6z m201 -313 c92 -38 102 -147 18 -190 -15 -7 -49 -17 -77 -21
-115 -16 -216 -89 -269 -194 -30 -58 -68 -91 -107 -91 -75 0 -124 54 -115 127
12 94 116 233 230 305 105 68 244 96 320 64z"/>
</g>
</svg>
